<svg xmlns="http://www.w3.org/2000/svg" viewBox="0 0 64 64"><defs><linearGradient id="g" x1="0" y1="0" x2="1" y2="1"><stop offset="0" stop-color="#8A70FF"></stop><stop offset="1" stop-color="#6A4FE8"></stop></linearGradient><radialGradient id="glow" cx="0.5" cy="0.42" r="0.75"><stop offset="0" stop-color="#B19CFF" stop-opacity="0.35"></stop><stop offset="1" stop-color="#B19CFF" stop-opacity="0"></stop></radialGradient></defs><rect width="64" height="64" rx="14.5" fill="url(#g)"></rect><rect width="64" height="64" rx="14.5" fill="url(#glow)"></rect><g transform="translate(32 32) scale(0.82) translate(-32 -32)"><line x1="32" y1="20" x2="32" y2="6" stroke="#FFFFFF" stroke-width="4.5" stroke-linecap="round"></line><line x1="39.25" y1="19.44" x2="42.75" y2="13.38" stroke="#FFFFFF" stroke-width="4.5" stroke-linecap="round"></line><circle cx="52.35" cy="20.25" r="3.2" fill="#FFFFFF"></circle><line x1="46.5" y1="32" x2="53.5" y2="32" stroke="#FFFFFF" stroke-width="4.5" stroke-linecap="round"></line><line x1="42.39" y1="38" x2="54.52" y2="45" stroke="#FFFFFF" stroke-width="4.5" stroke-linecap="round"></line><line x1="39.25" y1="44.56" x2="42.75" y2="50.62" stroke="#FFFFFF" stroke-width="4.5" stroke-linecap="round"></line><line x1="32" y1="44" x2="32" y2="58" stroke="#FFFFFF" stroke-width="4.5" stroke-linecap="round"></line><line x1="24.75" y1="44.56" x2="21.25" y2="50.62" stroke="#FFFFFF" stroke-width="4.5" stroke-linecap="round"></line><line x1="21.61" y1="38" x2="9.48" y2="45" stroke="#FFFFFF" stroke-width="4.5" stroke-linecap="round"></line><line x1="17.5" y1="32" x2="10.5" y2="32" stroke="#FFFFFF" stroke-width="4.5" stroke-linecap="round"></line><line x1="21.61" y1="26" x2="9.48" y2="19" stroke="#FFFFFF" stroke-width="4.5" stroke-linecap="round"></line><line x1="24.75" y1="19.44" x2="21.25" y2="13.38" stroke="#FFFFFF" stroke-width="4.5" stroke-linecap="round"></line></g></svg>