<svg xmlns="http://www.w3.org/2000/svg" viewBox="0 0 64 64"><defs><radialGradient id="glowd" cx="0.5" cy="0.4" r="0.8"><stop offset="0" stop-color="#7B61FF" stop-opacity="0.28"></stop><stop offset="1" stop-color="#7B61FF" stop-opacity="0"></stop></radialGradient></defs><rect width="64" height="64" rx="14.5" fill="#120C1E"></rect><rect width="64" height="64" rx="14.5" fill="url(#glowd)"></rect><g transform="translate(32 32) scale(0.82) translate(-32 -32)"><line x1="32" y1="20" x2="32" y2="6" stroke="#A18BFF" stroke-width="4.5" stroke-linecap="round"></line><line x1="39.25" y1="19.44" x2="42.75" y2="13.38" stroke="#A18BFF" stroke-width="4.5" stroke-linecap="round"></line><circle cx="52.35" cy="20.25" r="3.2" fill="#A18BFF"></circle><line x1="46.5" y1="32" x2="53.5" y2="32" stroke="#A18BFF" stroke-width="4.5" stroke-linecap="round"></line><line x1="42.39" y1="38" x2="54.52" y2="45" stroke="#A18BFF" stroke-width="4.5" stroke-linecap="round"></line><line x1="39.25" y1="44.56" x2="42.75" y2="50.62" stroke="#A18BFF" stroke-width="4.5" stroke-linecap="round"></line><line x1="32" y1="44" x2="32" y2="58" stroke="#A18BFF" stroke-width="4.5" stroke-linecap="round"></line><line x1="24.75" y1="44.56" x2="21.25" y2="50.62" stroke="#A18BFF" stroke-width="4.5" stroke-linecap="round"></line><line x1="21.61" y1="38" x2="9.48" y2="45" stroke="#A18BFF" stroke-width="4.5" stroke-linecap="round"></line><line x1="17.5" y1="32" x2="10.5" y2="32" stroke="#A18BFF" stroke-width="4.5" stroke-linecap="round"></line><line x1="21.61" y1="26" x2="9.48" y2="19" stroke="#A18BFF" stroke-width="4.5" stroke-linecap="round"></line><line x1="24.75" y1="19.44" x2="21.25" y2="13.38" stroke="#A18BFF" stroke-width="4.5" stroke-linecap="round"></line></g></svg>