<svg xmlns="http://www.w3.org/2000/svg" viewBox="0 0 1440 800"><line x1="1006.6" y1="417.2" x2="1100.3" y2="414.7" stroke="#7B61FF" stroke-width="1" opacity="0.064"></line><line x1="1006.6" y1="417.2" x2="1012.7" y2="550.6" stroke="#7B61FF" stroke-width="1" opacity="0.041"></line><line x1="1006.6" y1="417.2" x2="910.4" y2="269.4" stroke="#7B61FF" stroke-width="1" opacity="0.015"></line><line x1="1006.6" y1="417.2" x2="925" y2="590.8" stroke="#7B61FF" stroke-width="1" opacity="0.006"></line><line x1="1006.6" y1="417.2" x2="1159.1" y2="499.5" stroke="#7B61FF" stroke-width="1" opacity="0.017"></line><line x1="1006.6" y1="417.2" x2="1059.7" y2="526.8" stroke="#7B61FF" stroke-width="1" opacity="0.048"></line><line x1="671.4" y1="191.9" x2="529.9" y2="234.6" stroke="#7B61FF" stroke-width="1" opacity="0.032"></line><line x1="671.4" y1="191.9" x2="614.5" y2="374.9" stroke="#7B61FF" stroke-width="1" opacity="0.006"></line><line x1="671.4" y1="191.9" x2="513.1" y2="111" stroke="#7B61FF" stroke-width="1" opacity="0.014"></line><line x1="671.4" y1="191.9" x2="743.1" y2="262.4" stroke="#7B61FF" stroke-width="1" opacity="0.060"></line><line x1="671.4" y1="191.9" x2="816.3" y2="128.7" stroke="#7B61FF" stroke-width="1" opacity="0.026"></line><line x1="671.4" y1="191.9" x2="704.5" y2="183.8" stroke="#7B61FF" stroke-width="1" opacity="0.100"></line><line x1="1050.9" y1="206.3" x2="1097.1" y2="59.6" stroke="#7B61FF" stroke-width="1" opacity="0.028"></line><line x1="1050.9" y1="206.3" x2="910.4" y2="269.4" stroke="#7B61FF" stroke-width="1" opacity="0.028"></line><line x1="1100.3" y1="414.7" x2="1012.7" y2="550.6" stroke="#7B61FF" stroke-width="1" opacity="0.024"></line><line x1="1100.3" y1="414.7" x2="1190.3" y2="524.2" stroke="#7B61FF" stroke-width="1" opacity="0.036"></line><line x1="1100.3" y1="414.7" x2="1159.1" y2="499.5" stroke="#7B61FF" stroke-width="1" opacity="0.059"></line><line x1="1100.3" y1="414.7" x2="1059.7" y2="526.8" stroke="#7B61FF" stroke-width="1" opacity="0.049"></line><line x1="529.9" y1="234.6" x2="514.1" y2="340.3" stroke="#7B61FF" stroke-width="1" opacity="0.056"></line><line x1="529.9" y1="234.6" x2="614.5" y2="374.9" stroke="#7B61FF" stroke-width="1" opacity="0.022"></line><line x1="529.9" y1="234.6" x2="513.1" y2="111" stroke="#7B61FF" stroke-width="1" opacity="0.046"></line><line x1="529.9" y1="234.6" x2="449.8" y2="189.5" stroke="#7B61FF" stroke-width="1" opacity="0.065"></line><line x1="529.9" y1="234.6" x2="704.5" y2="183.8" stroke="#7B61FF" stroke-width="1" opacity="0.012"></line><line x1="426.7" y1="782.4" x2="400.3" y2="789" stroke="#7B61FF" stroke-width="1" opacity="0.104"></line><line x1="426.7" y1="782.4" x2="303.4" y2="650.8" stroke="#7B61FF" stroke-width="1" opacity="0.013"></line><line x1="1264" y1="152.6" x2="1097.1" y2="59.6" stroke="#7B61FF" stroke-width="1" opacity="0.006"></line><line x1="1264" y1="152.6" x2="1191.8" y2="32" stroke="#7B61FF" stroke-width="1" opacity="0.036"></line><line x1="1264" y1="152.6" x2="1314.8" y2="257.9" stroke="#7B61FF" stroke-width="1" opacity="0.050"></line><line x1="222.7" y1="232.8" x2="168.5" y2="423.9" stroke="#7B61FF" stroke-width="1" opacity="0.002"></line><line x1="1097.1" y1="59.6" x2="1191.8" y2="32" stroke="#7B61FF" stroke-width="1" opacity="0.061"></line><line x1="1097.1" y1="59.6" x2="908.1" y2="11.5" stroke="#7B61FF" stroke-width="1" opacity="0.004"></line><line x1="797.3" y1="497.3" x2="789.9" y2="654.8" stroke="#7B61FF" stroke-width="1" opacity="0.026"></line><line x1="797.3" y1="497.3" x2="791.3" y2="604.3" stroke="#7B61FF" stroke-width="1" opacity="0.056"></line><line x1="797.3" y1="497.3" x2="802.9" y2="658.5" stroke="#7B61FF" stroke-width="1" opacity="0.024"></line><line x1="797.3" y1="497.3" x2="925" y2="590.8" stroke="#7B61FF" stroke-width="1" opacity="0.026"></line><line x1="797.3" y1="497.3" x2="856.7" y2="573.5" stroke="#7B61FF" stroke-width="1" opacity="0.062"></line><line x1="797.3" y1="497.3" x2="877.4" y2="589.2" stroke="#7B61FF" stroke-width="1" opacity="0.047"></line><line x1="514.1" y1="340.3" x2="614.5" y2="374.9" stroke="#7B61FF" stroke-width="1" opacity="0.057"></line><line x1="514.1" y1="340.3" x2="449.8" y2="189.5" stroke="#7B61FF" stroke-width="1" opacity="0.022"></line><line x1="126.9" y1="614.4" x2="168.5" y2="423.9" stroke="#7B61FF" stroke-width="1" opacity="0.004"></line><line x1="126.9" y1="614.4" x2="34.7" y2="754.7" stroke="#7B61FF" stroke-width="1" opacity="0.020"></line><line x1="126.9" y1="614.4" x2="200.3" y2="795.4" stroke="#7B61FF" stroke-width="1" opacity="0.004"></line><line x1="126.9" y1="614.4" x2="303.4" y2="650.8" stroke="#7B61FF" stroke-width="1" opacity="0.013"></line><line x1="614.5" y1="374.9" x2="743.1" y2="262.4" stroke="#7B61FF" stroke-width="1" opacity="0.018"></line><line x1="1012.7" y1="550.6" x2="985.3" y2="737.1" stroke="#7B61FF" stroke-width="1" opacity="0.008"></line><line x1="1012.7" y1="550.6" x2="1190.3" y2="524.2" stroke="#7B61FF" stroke-width="1" opacity="0.013"></line><line x1="1012.7" y1="550.6" x2="925" y2="590.8" stroke="#7B61FF" stroke-width="1" opacity="0.063"></line><line x1="1012.7" y1="550.6" x2="856.7" y2="573.5" stroke="#7B61FF" stroke-width="1" opacity="0.026"></line><line x1="1012.7" y1="550.6" x2="1159.1" y2="499.5" stroke="#7B61FF" stroke-width="1" opacity="0.028"></line><line x1="1012.7" y1="550.6" x2="1059.7" y2="526.8" stroke="#7B61FF" stroke-width="1" opacity="0.089"></line><line x1="1012.7" y1="550.6" x2="877.4" y2="589.2" stroke="#7B61FF" stroke-width="1" opacity="0.036"></line><line x1="513.1" y1="111" x2="449.8" y2="189.5" stroke="#7B61FF" stroke-width="1" opacity="0.060"></line><line x1="910.4" y1="269.4" x2="743.1" y2="262.4" stroke="#7B61FF" stroke-width="1" opacity="0.020"></line><line x1="910.4" y1="269.4" x2="816.3" y2="128.7" stroke="#7B61FF" stroke-width="1" opacity="0.019"></line><line x1="985.3" y1="737.1" x2="855.7" y2="771.1" stroke="#7B61FF" stroke-width="1" opacity="0.040"></line><line x1="985.3" y1="737.1" x2="802.9" y2="658.5" stroke="#7B61FF" stroke-width="1" opacity="0.002"></line><line x1="985.3" y1="737.1" x2="925" y2="590.8" stroke="#7B61FF" stroke-width="1" opacity="0.026"></line><line x1="985.3" y1="737.1" x2="877.4" y2="589.2" stroke="#7B61FF" stroke-width="1" opacity="0.011"></line><line x1="1190.3" y1="524.2" x2="1159.1" y2="499.5" stroke="#7B61FF" stroke-width="1" opacity="0.096"></line><line x1="1190.3" y1="524.2" x2="1059.7" y2="526.8" stroke="#7B61FF" stroke-width="1" opacity="0.042"></line><line x1="855.7" y1="771.1" x2="789.9" y2="654.8" stroke="#7B61FF" stroke-width="1" opacity="0.040"></line><line x1="855.7" y1="771.1" x2="791.3" y2="604.3" stroke="#7B61FF" stroke-width="1" opacity="0.014"></line><line x1="855.7" y1="771.1" x2="802.9" y2="658.5" stroke="#7B61FF" stroke-width="1" opacity="0.046"></line><line x1="855.7" y1="771.1" x2="925" y2="590.8" stroke="#7B61FF" stroke-width="1" opacity="0.005"></line><line x1="855.7" y1="771.1" x2="856.7" y2="573.5" stroke="#7B61FF" stroke-width="1" opacity="0.002"></line><line x1="855.7" y1="771.1" x2="877.4" y2="589.2" stroke="#7B61FF" stroke-width="1" opacity="0.011"></line><line x1="789.9" y1="654.8" x2="791.3" y2="604.3" stroke="#7B61FF" stroke-width="1" opacity="0.090"></line><line x1="789.9" y1="654.8" x2="802.9" y2="658.5" stroke="#7B61FF" stroke-width="1" opacity="0.112"></line><line x1="789.9" y1="654.8" x2="925" y2="590.8" stroke="#7B61FF" stroke-width="1" opacity="0.031"></line><line x1="789.9" y1="654.8" x2="856.7" y2="573.5" stroke="#7B61FF" stroke-width="1" opacity="0.057"></line><line x1="789.9" y1="654.8" x2="877.4" y2="589.2" stroke="#7B61FF" stroke-width="1" opacity="0.055"></line><line x1="743.1" y1="262.4" x2="816.3" y2="128.7" stroke="#7B61FF" stroke-width="1" opacity="0.029"></line><line x1="743.1" y1="262.4" x2="704.5" y2="183.8" stroke="#7B61FF" stroke-width="1" opacity="0.068"></line><line x1="791.3" y1="604.3" x2="802.9" y2="658.5" stroke="#7B61FF" stroke-width="1" opacity="0.087"></line><line x1="791.3" y1="604.3" x2="925" y2="590.8" stroke="#7B61FF" stroke-width="1" opacity="0.040"></line><line x1="791.3" y1="604.3" x2="856.7" y2="573.5" stroke="#7B61FF" stroke-width="1" opacity="0.077"></line><line x1="791.3" y1="604.3" x2="877.4" y2="589.2" stroke="#7B61FF" stroke-width="1" opacity="0.068"></line><line x1="802.9" y1="658.5" x2="925" y2="590.8" stroke="#7B61FF" stroke-width="1" opacity="0.037"></line><line x1="802.9" y1="658.5" x2="856.7" y2="573.5" stroke="#7B61FF" stroke-width="1" opacity="0.060"></line><line x1="802.9" y1="658.5" x2="877.4" y2="589.2" stroke="#7B61FF" stroke-width="1" opacity="0.059"></line><line x1="925" y1="590.8" x2="856.7" y2="573.5" stroke="#7B61FF" stroke-width="1" opacity="0.078"></line><line x1="925" y1="590.8" x2="1059.7" y2="526.8" stroke="#7B61FF" stroke-width="1" opacity="0.031"></line><line x1="925" y1="590.8" x2="877.4" y2="589.2" stroke="#7B61FF" stroke-width="1" opacity="0.092"></line><line x1="34.7" y1="754.7" x2="200.3" y2="795.4" stroke="#7B61FF" stroke-width="1" opacity="0.018"></line><line x1="908.1" y1="11.5" x2="816.3" y2="128.7" stroke="#7B61FF" stroke-width="1" opacity="0.031"></line><line x1="856.7" y1="573.5" x2="877.4" y2="589.2" stroke="#7B61FF" stroke-width="1" opacity="0.105"></line><line x1="400.3" y1="789" x2="200.3" y2="795.4" stroke="#7B61FF" stroke-width="1" opacity="0.001"></line><line x1="400.3" y1="789" x2="303.4" y2="650.8" stroke="#7B61FF" stroke-width="1" opacity="0.020"></line><line x1="1159.1" y1="499.5" x2="1059.7" y2="526.8" stroke="#7B61FF" stroke-width="1" opacity="0.059"></line><line x1="200.3" y1="795.4" x2="303.4" y2="650.8" stroke="#7B61FF" stroke-width="1" opacity="0.014"></line><line x1="816.3" y1="128.7" x2="704.5" y2="183.8" stroke="#7B61FF" stroke-width="1" opacity="0.046"></line><line x1="1059.7" y1="526.8" x2="877.4" y2="589.2" stroke="#7B61FF" stroke-width="1" opacity="0.005"></line><circle cx="16.9" cy="49.6" r="2.46" fill="#7B61FF" opacity="0.28"></circle><circle cx="1006.6" cy="417.2" r="1.55" fill="#7B61FF" opacity="0.28"></circle><circle cx="671.4" cy="191.9" r="1.79" fill="#7B61FF" opacity="0.28"></circle><circle cx="1050.9" cy="206.3" r="1.15" fill="#7B61FF" opacity="0.28"></circle><circle cx="1100.3" cy="414.7" r="1.22" fill="#7B61FF" opacity="0.28"></circle><circle cx="529.9" cy="234.6" r="1.76" fill="#7B61FF" opacity="0.28"></circle><circle cx="426.7" cy="782.4" r="1.3" fill="#7B61FF" opacity="0.28"></circle><circle cx="1264" cy="152.6" r="1.13" fill="#7B61FF" opacity="0.28"></circle><circle cx="222.7" cy="232.8" r="1.78" fill="#7B61FF" opacity="0.28"></circle><circle cx="1097.1" cy="59.6" r="2.36" fill="#7B61FF" opacity="0.28"></circle><circle cx="797.3" cy="497.3" r="1.99" fill="#7B61FF" opacity="0.28"></circle><circle cx="1391" cy="499.5" r="2.37" fill="#7B61FF" opacity="0.28"></circle><circle cx="1191.8" cy="32" r="1.18" fill="#7B61FF" opacity="0.28"></circle><circle cx="514.1" cy="340.3" r="0.93" fill="#7B61FF" opacity="0.28"></circle><circle cx="126.9" cy="614.4" r="1.49" fill="#7B61FF" opacity="0.28"></circle><circle cx="614.5" cy="374.9" r="2.41" fill="#7B61FF" opacity="0.28"></circle><circle cx="1012.7" cy="550.6" r="1.43" fill="#7B61FF" opacity="0.28"></circle><circle cx="513.1" cy="111" r="1.11" fill="#7B61FF" opacity="0.28"></circle><circle cx="1314.8" cy="257.9" r="1.2" fill="#7B61FF" opacity="0.28"></circle><circle cx="910.4" cy="269.4" r="0.97" fill="#7B61FF" opacity="0.28"></circle><circle cx="985.3" cy="737.1" r="1.78" fill="#7B61FF" opacity="0.28"></circle><circle cx="1190.3" cy="524.2" r="2.37" fill="#7B61FF" opacity="0.28"></circle><circle cx="168.5" cy="423.9" r="1.94" fill="#7B61FF" opacity="0.28"></circle><circle cx="1283.1" cy="768.4" r="2.24" fill="#7B61FF" opacity="0.28"></circle><circle cx="855.7" cy="771.1" r="2.45" fill="#7B61FF" opacity="0.28"></circle><circle cx="789.9" cy="654.8" r="0.91" fill="#7B61FF" opacity="0.28"></circle><circle cx="743.1" cy="262.4" r="2.06" fill="#7B61FF" opacity="0.28"></circle><circle cx="791.3" cy="604.3" r="2.46" fill="#7B61FF" opacity="0.28"></circle><circle cx="802.9" cy="658.5" r="1.59" fill="#7B61FF" opacity="0.28"></circle><circle cx="925" cy="590.8" r="1.78" fill="#7B61FF" opacity="0.28"></circle><circle cx="449.8" cy="189.5" r="0.91" fill="#7B61FF" opacity="0.28"></circle><circle cx="34.7" cy="754.7" r="2.23" fill="#7B61FF" opacity="0.28"></circle><circle cx="908.1" cy="11.5" r="1.89" fill="#7B61FF" opacity="0.28"></circle><circle cx="856.7" cy="573.5" r="2.49" fill="#7B61FF" opacity="0.28"></circle><circle cx="400.3" cy="789" r="1.94" fill="#7B61FF" opacity="0.28"></circle><circle cx="1159.1" cy="499.5" r="2.23" fill="#7B61FF" opacity="0.28"></circle><circle cx="200.3" cy="795.4" r="1.71" fill="#7B61FF" opacity="0.28"></circle><circle cx="816.3" cy="128.7" r="1.53" fill="#7B61FF" opacity="0.28"></circle><circle cx="303.4" cy="650.8" r="2.28" fill="#7B61FF" opacity="0.28"></circle><circle cx="1059.7" cy="526.8" r="2.48" fill="#7B61FF" opacity="0.28"></circle><circle cx="877.4" cy="589.2" r="2.43" fill="#7B61FF" opacity="0.28"></circle><circle cx="704.5" cy="183.8" r="1.83" fill="#7B61FF" opacity="0.28"></circle></svg>